<svg width="67" height="59" viewBox="0 0 67 59" fill="none" xmlns="http://www.w3.org/2000/svg">
<path d="M9.48047 12.418C8.93359 12.418 8.44531 12.5352 8.01562 12.7695C7.58594 12.9961 7.21875 13.3281 6.91406 13.7656C6.60938 14.2031 6.375 14.7383 6.21094 15.3711C6.05469 15.9961 5.97656 16.707 5.97656 17.5039C5.97656 18.582 6.11328 19.4883 6.38672 20.2227C6.66016 20.957 7.07422 21.5117 7.62891 21.8867C8.19141 22.2617 8.89453 22.4492 9.73828 22.4492C10.5039 22.4492 11.2383 22.3438 11.9414 22.1328C12.6523 21.9219 13.3672 21.668 14.0859 21.3711V25.2852C13.3281 25.6211 12.5508 25.8633 11.7539 26.0117C10.9648 26.1602 10.125 26.2344 9.23438 26.2344C7.375 26.2344 5.85156 25.8672 4.66406 25.1328C3.48438 24.3906 2.61328 23.3633 2.05078 22.0508C1.49609 20.7383 1.21875 19.2148 1.21875 17.4805C1.21875 16.1836 1.39844 14.9961 1.75781 13.918C2.125 12.8398 2.66016 11.9062 3.36328 11.1172C4.06641 10.3203 4.93359 9.70703 5.96484 9.27734C7.00391 8.83984 8.19141 8.62109 9.52734 8.62109C10.3555 8.62109 11.2266 8.71875 12.1406 8.91406C13.0625 9.10156 13.9609 9.40625 14.8359 9.82812L13.418 13.4727C12.793 13.1758 12.1602 12.9258 11.5195 12.7227C10.8789 12.5195 10.1992 12.418 9.48047 12.418ZM23.0508 8.86719C24.6055 8.86719 25.8984 9.05859 26.9297 9.44141C27.9609 9.81641 28.7344 10.3789 29.25 11.1289C29.7734 11.8789 30.0352 12.8125 30.0352 13.9297C30.0352 14.625 29.918 15.2578 29.6836 15.8281C29.4492 16.3984 29.1133 16.9102 28.6758 17.3633C28.2461 17.8086 27.7305 18.1992 27.1289 18.5352L32.1211 26H26.8711L23.2383 19.7656H22.0664V26H17.4375V8.86719H23.0508ZM22.9805 12.3711H22.0664V16.2852H22.9336C23.6445 16.2852 24.2266 16.1289 24.6797 15.8164C25.1328 15.5039 25.3594 14.9453 25.3594 14.1406C25.3594 13.5859 25.1719 13.1523 24.7969 12.8398C24.4219 12.5273 23.8164 12.3711 22.9805 12.3711ZM49.7109 17.4102C49.7109 18.7305 49.5508 19.9336 49.2305 21.0195C48.918 22.0977 48.4258 23.0273 47.7539 23.8086C47.082 24.5898 46.2188 25.1914 45.1641 25.6133C44.1094 26.0273 42.8477 26.2344 41.3789 26.2344C39.9414 26.2344 38.6953 26.0273 37.6406 25.6133C36.5938 25.1914 35.7305 24.5938 35.0508 23.8203C34.3711 23.0391 33.8672 22.1055 33.5391 21.0195C33.2109 19.9336 33.0469 18.7227 33.0469 17.3867C33.0469 15.6055 33.3398 14.0586 33.9258 12.7461C34.5195 11.4258 35.4336 10.4062 36.668 9.6875C37.9023 8.96094 39.4805 8.59766 41.4023 8.59766C43.3555 8.59766 44.9414 8.96094 46.1602 9.6875C47.3867 10.4141 48.2852 11.4375 48.8555 12.7578C49.4258 14.0781 49.7109 15.6289 49.7109 17.4102ZM37.9219 17.4102C37.9219 18.4414 38.0391 19.3281 38.2734 20.0703C38.5078 20.8125 38.8789 21.3828 39.3867 21.7812C39.8945 22.1797 40.5586 22.3789 41.3789 22.3789C42.2305 22.3789 42.9062 22.1797 43.4062 21.7812C43.9141 21.3828 44.2773 20.8125 44.4961 20.0703C44.7227 19.3281 44.8359 18.4414 44.8359 17.4102C44.8359 15.8633 44.5781 14.6406 44.0625 13.7422C43.5469 12.8438 42.6602 12.3945 41.4023 12.3945C40.5664 12.3945 39.8906 12.5977 39.375 13.0039C38.8672 13.4102 38.4961 13.9883 38.2617 14.7383C38.0352 15.4883 37.9219 16.3789 37.9219 17.4102ZM60.4336 12.418C59.8867 12.418 59.3984 12.5352 58.9688 12.7695C58.5391 12.9961 58.1719 13.3281 57.8672 13.7656C57.5625 14.2031 57.3281 14.7383 57.1641 15.3711C57.0078 15.9961 56.9297 16.707 56.9297 17.5039C56.9297 18.582 57.0664 19.4883 57.3398 20.2227C57.6133 20.957 58.0273 21.5117 58.582 21.8867C59.1445 22.2617 59.8477 22.4492 60.6914 22.4492C61.457 22.4492 62.1914 22.3438 62.8945 22.1328C63.6055 21.9219 64.3203 21.668 65.0391 21.3711V25.2852C64.2812 25.6211 63.5039 25.8633 62.707 26.0117C61.918 26.1602 61.0781 26.2344 60.1875 26.2344C58.3281 26.2344 56.8047 25.8672 55.6172 25.1328C54.4375 24.3906 53.5664 23.3633 53.0039 22.0508C52.4492 20.7383 52.1719 19.2148 52.1719 17.4805C52.1719 16.1836 52.3516 14.9961 52.7109 13.918C53.0781 12.8398 53.6133 11.9062 54.3164 11.1172C55.0195 10.3203 55.8867 9.70703 56.918 9.27734C57.957 8.83984 59.1445 8.62109 60.4805 8.62109C61.3086 8.62109 62.1797 8.71875 63.0938 8.91406C64.0156 9.10156 64.9141 9.40625 65.7891 9.82812L64.3711 13.4727C63.7461 13.1758 63.1133 12.9258 62.4727 12.7227C61.832 12.5195 61.1523 12.418 60.4336 12.418Z" style="fill: black" />
<path d="M9.87891 52L4.125 36.8359H4.03125C4.0625 37.1562 4.08984 37.5469 4.11328 38.0078C4.13672 38.4688 4.15625 38.9727 4.17188 39.5195C4.1875 40.0586 4.19531 40.6094 4.19531 41.1719V52H2.34375V34.8672H5.29688L10.7227 49.1172H10.8047L16.3125 34.8672H19.2422V52H17.2734V41.0312C17.2734 40.5234 17.2812 40.0156 17.2969 39.5078C17.3125 38.9922 17.332 38.5078 17.3555 38.0547C17.3789 37.5938 17.4023 37.1953 17.4258 36.8594H17.332L11.5078 52H9.87891ZM23.9297 52V34.8672H25.9219V52H23.9297ZM41.3789 52L39.2695 46.5625H32.4023L30.3047 52H28.2891L34.9922 34.7969H36.7852L43.4414 52H41.3789ZM38.6719 44.793L36.668 39.3906C36.6211 39.25 36.543 39.0195 36.4336 38.6992C36.332 38.3789 36.2266 38.0469 36.1172 37.7031C36.0078 37.3594 35.918 37.082 35.8477 36.8711C35.7695 37.1914 35.6836 37.5117 35.5898 37.832C35.5039 38.1445 35.418 38.4375 35.332 38.7109C35.2461 38.9766 35.1719 39.2031 35.1094 39.3906L33.0703 44.793H38.6719ZM53.3555 52L47.6016 36.8359H47.5078C47.5391 37.1562 47.5664 37.5469 47.5898 38.0078C47.6133 38.4688 47.6328 38.9727 47.6484 39.5195C47.6641 40.0586 47.6719 40.6094 47.6719 41.1719V52H45.8203V34.8672H48.7734L54.1992 49.1172H54.2812L59.7891 34.8672H62.7188V52H60.75V41.0312C60.75 40.5234 60.7578 40.0156 60.7734 39.5078C60.7891 38.9922 60.8086 38.5078 60.832 38.0547C60.8555 37.5938 60.8789 37.1953 60.9023 36.8594H60.8086L54.9844 52H53.3555Z" fill="#EC5FA3"/>
</svg>
