<svg width="25" height="24" viewBox="0 0 25 24" fill="none" xmlns="http://www.w3.org/2000/svg">
<circle cx="12.5" cy="12" r="12" fill="#11E297"/>
<g clip-path="url(#clip0_1238_18115)">
<path d="M18.3178 7.36443C18.1038 7.18794 17.7898 7.21944 17.6143 7.43242L10.9645 15.5067L7.35361 11.8963C7.15811 11.7008 6.84212 11.7008 6.64663 11.8963C6.45113 12.0918 6.45113 12.4078 6.64663 12.6033L10.6465 16.6032C10.74 16.6977 10.8675 16.7497 11 16.7497C11.008 16.7497 11.016 16.7497 11.024 16.7492C11.1655 16.7427 11.2965 16.6767 11.386 16.5677L18.3858 8.06789C18.5613 7.8544 18.5313 7.53991 18.3178 7.36443Z" fill="white"/>
</g>
<defs>
<clipPath id="clip0_1238_18115">
<rect width="12" height="12" fill="white" transform="translate(6.5 6)"/>
</clipPath>
</defs>
</svg>
